<mxfile host="Electron" agent="Mozilla/5.0 (Windows NT 10.0; Win64; x64) AppleWebKit/537.36 (KHTML, like Gecko) draw.io/26.0.9 Chrome/128.0.6613.186 Electron/32.2.5 Safari/537.36" version="26.0.9">
  <diagram name="Page-1" id="cBATo5Cm4NL-kuj8FKrh">
    <mxGraphModel dx="1418" dy="1655" grid="1" gridSize="10" guides="1" tooltips="1" connect="1" arrows="1" fold="1" page="1" pageScale="1" pageWidth="1169" pageHeight="827" math="0" shadow="0">
      <root>
        <mxCell id="0" />
        <mxCell id="1" parent="0" />
        <mxCell id="fMWMXKsyIat3dE0SFgxR-4" value="" style="rounded=1;whiteSpace=wrap;html=1;fillColor=#d5e8d4;strokeColor=#82b366;" parent="1" vertex="1">
          <mxGeometry x="370" y="-280" width="120" height="120" as="geometry" />
        </mxCell>
        <mxCell id="fMWMXKsyIat3dE0SFgxR-3" value="" style="rounded=1;whiteSpace=wrap;html=1;fillColor=#d5e8d4;strokeColor=#82b366;" parent="1" vertex="1">
          <mxGeometry x="40" y="-595" width="120" height="120" as="geometry" />
        </mxCell>
        <mxCell id="fMWMXKsyIat3dE0SFgxR-2" value="" style="rounded=1;whiteSpace=wrap;html=1;fillColor=#E6E6E6;strokeColor=#666666;align=center;verticalAlign=middle;fontFamily=Helvetica;fontSize=12;fontColor=#333333;" parent="1" vertex="1">
          <mxGeometry x="340" y="-755" width="120" height="120" as="geometry" />
        </mxCell>
        <mxCell id="fMWMXKsyIat3dE0SFgxR-1" value="" style="rounded=1;whiteSpace=wrap;html=1;fillColor=#d5e8d4;strokeColor=#82b366;" parent="1" vertex="1">
          <mxGeometry x="580" y="-720" width="120" height="120" as="geometry" />
        </mxCell>
        <mxCell id="HG4AQly4a6IAlRrZUWF0-15" value="" style="rounded=1;whiteSpace=wrap;html=1;fillColor=#E6E6E6;strokeColor=#666666;fontColor=#333333;" parent="1" vertex="1">
          <mxGeometry x="40" y="-800" width="120" height="120" as="geometry" />
        </mxCell>
        <mxCell id="HG4AQly4a6IAlRrZUWF0-14" value="" style="rounded=1;whiteSpace=wrap;html=1;fillColor=#d5e8d4;strokeColor=#82b366;" parent="1" vertex="1">
          <mxGeometry x="40" y="-440" width="120" height="120" as="geometry" />
        </mxCell>
        <mxCell id="HG4AQly4a6IAlRrZUWF0-12" value="" style="rounded=1;whiteSpace=wrap;html=1;fillColor=#d5e8d4;strokeColor=#82b366;" parent="1" vertex="1">
          <mxGeometry x="370" y="-515" width="120" height="120" as="geometry" />
        </mxCell>
        <mxCell id="HG4AQly4a6IAlRrZUWF0-9" value="" style="rounded=1;whiteSpace=wrap;html=1;fillColor=#d5e8d4;strokeColor=#82b366;" parent="1" vertex="1">
          <mxGeometry x="50" y="-280" width="120" height="120" as="geometry" />
        </mxCell>
        <mxCell id="HG4AQly4a6IAlRrZUWF0-10" value="" style="rounded=1;whiteSpace=wrap;html=1;fillColor=#d5e8d4;strokeColor=#82b366;" parent="1" vertex="1">
          <mxGeometry x="580" y="-515" width="120" height="120" as="geometry" />
        </mxCell>
        <mxCell id="HG4AQly4a6IAlRrZUWF0-11" value="" style="rounded=1;whiteSpace=wrap;html=1;fillColor=#d5e8d4;strokeColor=#82b366;" parent="1" vertex="1">
          <mxGeometry x="580" y="-320" width="120" height="120" as="geometry" />
        </mxCell>
        <mxCell id="HG4AQly4a6IAlRrZUWF0-6" style="edgeStyle=orthogonalEdgeStyle;rounded=0;orthogonalLoop=1;jettySize=auto;html=1;entryX=0;entryY=0.5;entryDx=0;entryDy=0;strokeColor=#6c8ebf;strokeWidth=2;align=center;verticalAlign=middle;fontFamily=Helvetica;fontSize=11;fontColor=default;labelBackgroundColor=default;endArrow=classic;fillColor=#dae8fc;dashed=1;exitX=1;exitY=0.75;exitDx=0;exitDy=0;" parent="1" source="KOd4zk1bxHOUvbGizJSH-2" target="KOd4zk1bxHOUvbGizJSH-8" edge="1">
          <mxGeometry relative="1" as="geometry" />
        </mxCell>
        <mxCell id="pe3YYp37Rb-mgA4BbkB6-21" value="async event-driven" style="edgeLabel;html=1;align=center;verticalAlign=middle;resizable=0;points=[];" parent="HG4AQly4a6IAlRrZUWF0-6" vertex="1" connectable="0">
          <mxGeometry x="0.0055" y="1" relative="1" as="geometry">
            <mxPoint as="offset" />
          </mxGeometry>
        </mxCell>
        <mxCell id="dS32Kvpk8FgzBGndb_1d-3" style="edgeStyle=orthogonalEdgeStyle;rounded=0;orthogonalLoop=1;jettySize=auto;html=1;entryX=0.5;entryY=0;entryDx=0;entryDy=0;exitX=0.5;exitY=1;exitDx=0;exitDy=0;dashed=1;strokeColor=#6c8ebf;strokeWidth=2;align=center;verticalAlign=middle;fontFamily=Helvetica;fontSize=11;fontColor=default;labelBackgroundColor=default;endArrow=classic;fillColor=#dae8fc;" parent="1" source="KOd4zk1bxHOUvbGizJSH-2" target="KOd4zk1bxHOUvbGizJSH-5" edge="1">
          <mxGeometry relative="1" as="geometry" />
        </mxCell>
        <mxCell id="pe3YYp37Rb-mgA4BbkB6-20" value="async event-driven" style="edgeLabel;html=1;align=center;verticalAlign=middle;resizable=0;points=[];" parent="dS32Kvpk8FgzBGndb_1d-3" vertex="1" connectable="0">
          <mxGeometry x="0.0108" y="1" relative="1" as="geometry">
            <mxPoint as="offset" />
          </mxGeometry>
        </mxCell>
        <mxCell id="KOd4zk1bxHOUvbGizJSH-2" value="&lt;span style=&quot;font-size: 11px;&quot;&gt;Обработка заказов&lt;/span&gt;" style="whiteSpace=wrap;html=1;aspect=fixed;rounded=1;strokeColor=default;align=center;verticalAlign=middle;fontFamily=Helvetica;fontSize=12;fontColor=default;fillColor=default;" parent="1" vertex="1">
          <mxGeometry x="390" y="-495" width="80" height="80" as="geometry" />
        </mxCell>
        <mxCell id="KOd4zk1bxHOUvbGizJSH-4" value="Списание средств у пользователей" style="whiteSpace=wrap;html=1;aspect=fixed;rounded=1;strokeColor=default;align=center;verticalAlign=middle;fontFamily=Helvetica;fontSize=11;fontColor=default;fillColor=default;" parent="1" vertex="1">
          <mxGeometry x="600" y="-495" width="80" height="80" as="geometry" />
        </mxCell>
        <mxCell id="KOd4zk1bxHOUvbGizJSH-8" value="Начисление средств исполнителям" style="whiteSpace=wrap;html=1;aspect=fixed;rounded=1;strokeColor=default;align=center;verticalAlign=middle;fontFamily=Helvetica;fontSize=11;fontColor=default;fillColor=default;" parent="1" vertex="1">
          <mxGeometry x="600" y="-300" width="80" height="80" as="geometry" />
        </mxCell>
        <mxCell id="KOd4zk1bxHOUvbGizJSH-3" value="Сборка расходников" style="whiteSpace=wrap;html=1;aspect=fixed;rounded=1;strokeColor=default;align=center;verticalAlign=middle;fontFamily=Helvetica;fontSize=12;fontColor=default;fillColor=default;" parent="1" vertex="1">
          <mxGeometry x="60" y="-575" width="80" height="80" as="geometry" />
        </mxCell>
        <mxCell id="KOd4zk1bxHOUvbGizJSH-5" value="Р&lt;span style=&quot;background-color: transparent; color: light-dark(rgb(0, 0, 0), rgb(255, 255, 255));&quot;&gt;азработка гипотез для улучшения бизнеса&lt;/span&gt;" style="whiteSpace=wrap;html=1;aspect=fixed;rounded=1;strokeColor=default;align=center;verticalAlign=middle;fontFamily=Helvetica;fontSize=12;fontColor=default;fillColor=default;" parent="1" vertex="1">
          <mxGeometry x="390" y="-260" width="80" height="80" as="geometry" />
        </mxCell>
        <mxCell id="KOd4zk1bxHOUvbGizJSH-21" value="Алгоритм матчинга" style="whiteSpace=wrap;html=1;aspect=fixed;rounded=1;strokeColor=default;align=center;verticalAlign=middle;fontFamily=Helvetica;fontSize=12;fontColor=default;fillColor=default;" parent="1" vertex="1">
          <mxGeometry x="600" y="-700" width="80" height="80" as="geometry" />
        </mxCell>
        <mxCell id="KOd4zk1bxHOUvbGizJSH-1" value="Устройство новых исполнителей в штат" style="whiteSpace=wrap;html=1;aspect=fixed;rounded=1;" parent="1" vertex="1">
          <mxGeometry x="60" y="-420" width="80" height="80" as="geometry" />
        </mxCell>
        <mxCell id="KOd4zk1bxHOUvbGizJSH-7" value="Ставки на заказы" style="whiteSpace=wrap;html=1;aspect=fixed;rounded=1;" parent="1" vertex="1">
          <mxGeometry x="70" y="-260" width="80" height="80" as="geometry" />
        </mxCell>
        <mxCell id="zf6uA2M3LzU_gdplKOVO-2" value="Поставка печенья" style="whiteSpace=wrap;html=1;aspect=fixed;rounded=1;strokeColor=default;align=center;verticalAlign=middle;fontFamily=Helvetica;fontSize=12;fontColor=default;fillColor=default;" parent="1" vertex="1">
          <mxGeometry x="60" y="-780" width="80" height="80" as="geometry" />
        </mxCell>
        <mxCell id="dS32Kvpk8FgzBGndb_1d-1" style="edgeStyle=orthogonalEdgeStyle;rounded=0;orthogonalLoop=1;jettySize=auto;html=1;entryX=0.317;entryY=-0.004;entryDx=0;entryDy=0;dashed=1;strokeColor=#6c8ebf;strokeWidth=2;align=center;verticalAlign=middle;fontFamily=Helvetica;fontSize=11;fontColor=default;labelBackgroundColor=default;endArrow=classic;fillColor=#dae8fc;entryPerimeter=0;exitX=0.5;exitY=1;exitDx=0;exitDy=0;" parent="1" source="3Ri1xk0whOU93GiIezh3-3" target="KOd4zk1bxHOUvbGizJSH-2" edge="1">
          <mxGeometry relative="1" as="geometry">
            <Array as="points">
              <mxPoint x="400" y="-560" />
              <mxPoint x="415" y="-560" />
            </Array>
          </mxGeometry>
        </mxCell>
        <mxCell id="pe3YYp37Rb-mgA4BbkB6-18" value="async event-driven" style="edgeLabel;html=1;align=center;verticalAlign=middle;resizable=0;points=[];" parent="dS32Kvpk8FgzBGndb_1d-1" vertex="1" connectable="0">
          <mxGeometry x="-0.4631" y="-1" relative="1" as="geometry">
            <mxPoint as="offset" />
          </mxGeometry>
        </mxCell>
        <mxCell id="3Ri1xk0whOU93GiIezh3-3" value="HCB" style="whiteSpace=wrap;html=1;aspect=fixed;rounded=1;" parent="1" vertex="1">
          <mxGeometry x="360" y="-735" width="80" height="80" as="geometry" />
        </mxCell>
        <mxCell id="3Ri1xk0whOU93GiIezh3-6" style="edgeStyle=orthogonalEdgeStyle;rounded=0;orthogonalLoop=1;jettySize=auto;html=1;fillColor=#dae8fc;strokeColor=#6c8ebf;strokeWidth=2;align=center;verticalAlign=middle;fontFamily=Helvetica;fontSize=11;fontColor=default;labelBackgroundColor=default;endArrow=classic;" parent="1" source="KOd4zk1bxHOUvbGizJSH-3" target="zf6uA2M3LzU_gdplKOVO-2" edge="1">
          <mxGeometry relative="1" as="geometry" />
        </mxCell>
        <mxCell id="pe3YYp37Rb-mgA4BbkB6-10" value="sync request-response" style="edgeLabel;html=1;align=center;verticalAlign=middle;resizable=0;points=[];" parent="3Ri1xk0whOU93GiIezh3-6" vertex="1" connectable="0">
          <mxGeometry x="0.024" y="-1" relative="1" as="geometry">
            <mxPoint as="offset" />
          </mxGeometry>
        </mxCell>
        <mxCell id="HG4AQly4a6IAlRrZUWF0-4" style="edgeStyle=orthogonalEdgeStyle;rounded=0;orthogonalLoop=1;jettySize=auto;html=1;entryX=1;entryY=0.5;entryDx=0;entryDy=0;strokeColor=#6c8ebf;strokeWidth=2;align=center;verticalAlign=middle;fontFamily=Helvetica;fontSize=11;fontColor=default;labelBackgroundColor=default;endArrow=classic;fillColor=#dae8fc;exitX=0;exitY=0.75;exitDx=0;exitDy=0;dashed=1;" parent="1" source="KOd4zk1bxHOUvbGizJSH-2" target="KOd4zk1bxHOUvbGizJSH-7" edge="1">
          <mxGeometry relative="1" as="geometry">
            <Array as="points">
              <mxPoint x="350" y="-435" />
              <mxPoint x="350" y="-220" />
            </Array>
          </mxGeometry>
        </mxCell>
        <mxCell id="pe3YYp37Rb-mgA4BbkB6-17" value="async event-driven" style="edgeLabel;html=1;align=center;verticalAlign=middle;resizable=0;points=[];" parent="HG4AQly4a6IAlRrZUWF0-4" vertex="1" connectable="0">
          <mxGeometry x="0.0067" relative="1" as="geometry">
            <mxPoint x="-116" y="24" as="offset" />
          </mxGeometry>
        </mxCell>
        <mxCell id="HG4AQly4a6IAlRrZUWF0-5" style="edgeStyle=orthogonalEdgeStyle;rounded=0;orthogonalLoop=1;jettySize=auto;html=1;entryX=1;entryY=0.5;entryDx=0;entryDy=0;strokeColor=#6c8ebf;strokeWidth=2;align=center;verticalAlign=middle;fontFamily=Helvetica;fontSize=11;fontColor=default;labelBackgroundColor=default;endArrow=classic;fillColor=#dae8fc;dashed=1;" parent="1" source="KOd4zk1bxHOUvbGizJSH-2" target="KOd4zk1bxHOUvbGizJSH-1" edge="1">
          <mxGeometry relative="1" as="geometry">
            <Array as="points">
              <mxPoint x="330" y="-455" />
              <mxPoint x="330" y="-380" />
            </Array>
          </mxGeometry>
        </mxCell>
        <mxCell id="pe3YYp37Rb-mgA4BbkB6-19" value="async event-driven" style="edgeLabel;html=1;align=center;verticalAlign=middle;resizable=0;points=[];" parent="HG4AQly4a6IAlRrZUWF0-5" vertex="1" connectable="0">
          <mxGeometry x="0.0656" y="-2" relative="1" as="geometry">
            <mxPoint x="-67" y="1" as="offset" />
          </mxGeometry>
        </mxCell>
        <mxCell id="HG4AQly4a6IAlRrZUWF0-7" style="edgeStyle=orthogonalEdgeStyle;rounded=0;orthogonalLoop=1;jettySize=auto;html=1;exitX=0.5;exitY=0;exitDx=0;exitDy=0;entryX=0.5;entryY=1;entryDx=0;entryDy=0;strokeColor=#6c8ebf;strokeWidth=2;align=center;verticalAlign=middle;fontFamily=Helvetica;fontSize=11;fontColor=default;labelBackgroundColor=default;endArrow=classic;fillColor=#dae8fc;" parent="1" source="KOd4zk1bxHOUvbGizJSH-2" target="KOd4zk1bxHOUvbGizJSH-21" edge="1">
          <mxGeometry relative="1" as="geometry">
            <Array as="points">
              <mxPoint x="430" y="-560" />
              <mxPoint x="640" y="-560" />
            </Array>
          </mxGeometry>
        </mxCell>
        <mxCell id="pe3YYp37Rb-mgA4BbkB6-14" value="sync request-response" style="edgeLabel;html=1;align=center;verticalAlign=middle;resizable=0;points=[];" parent="HG4AQly4a6IAlRrZUWF0-7" vertex="1" connectable="0">
          <mxGeometry x="-0.0299" y="2" relative="1" as="geometry">
            <mxPoint x="1" y="1" as="offset" />
          </mxGeometry>
        </mxCell>
        <mxCell id="HG4AQly4a6IAlRrZUWF0-8" style="edgeStyle=orthogonalEdgeStyle;rounded=0;orthogonalLoop=1;jettySize=auto;html=1;entryX=1;entryY=0.5;entryDx=0;entryDy=0;exitX=0;exitY=0.25;exitDx=0;exitDy=0;strokeColor=#6c8ebf;strokeWidth=2;align=center;verticalAlign=middle;fontFamily=Helvetica;fontSize=11;fontColor=default;labelBackgroundColor=default;endArrow=classic;fillColor=#dae8fc;dashed=1;" parent="1" source="KOd4zk1bxHOUvbGizJSH-2" target="KOd4zk1bxHOUvbGizJSH-3" edge="1">
          <mxGeometry relative="1" as="geometry">
            <Array as="points">
              <mxPoint x="330" y="-475" />
              <mxPoint x="330" y="-535" />
            </Array>
          </mxGeometry>
        </mxCell>
        <mxCell id="pe3YYp37Rb-mgA4BbkB6-22" value="async event-driven" style="edgeLabel;html=1;align=center;verticalAlign=middle;resizable=0;points=[];" parent="HG4AQly4a6IAlRrZUWF0-8" vertex="1" connectable="0">
          <mxGeometry x="0.3925" y="-2" relative="1" as="geometry">
            <mxPoint y="1" as="offset" />
          </mxGeometry>
        </mxCell>
        <mxCell id="fMWMXKsyIat3dE0SFgxR-5" value="pipeline" style="text;html=1;align=center;verticalAlign=middle;resizable=0;points=[];autosize=1;strokeColor=none;fillColor=none;fontSize=10;" parent="1" vertex="1">
          <mxGeometry x="640" y="-630" width="60" height="30" as="geometry" />
        </mxCell>
        <mxCell id="fMWMXKsyIat3dE0SFgxR-6" value="external service" style="text;html=1;align=center;verticalAlign=middle;resizable=0;points=[];autosize=1;strokeColor=none;fillColor=none;fontSize=10;" parent="1" vertex="1">
          <mxGeometry x="55" y="-710" width="90" height="30" as="geometry" />
        </mxCell>
        <mxCell id="fMWMXKsyIat3dE0SFgxR-7" value="layered" style="text;html=1;align=center;verticalAlign=middle;resizable=0;points=[];autosize=1;strokeColor=none;fillColor=none;fontSize=10;" parent="1" vertex="1">
          <mxGeometry x="610" y="-425" width="60" height="30" as="geometry" />
        </mxCell>
        <mxCell id="fMWMXKsyIat3dE0SFgxR-8" value="microkernel" style="text;html=1;align=center;verticalAlign=middle;resizable=0;points=[];autosize=1;strokeColor=none;fillColor=none;fontSize=10;" parent="1" vertex="1">
          <mxGeometry x="60" y="-350" width="80" height="30" as="geometry" />
        </mxCell>
        <mxCell id="fMWMXKsyIat3dE0SFgxR-10" value="layered" style="text;html=1;align=center;verticalAlign=middle;resizable=0;points=[];autosize=1;strokeColor=none;fillColor=none;fontSize=10;" parent="1" vertex="1">
          <mxGeometry x="380" y="-425" width="100" height="30" as="geometry" />
        </mxCell>
        <mxCell id="fMWMXKsyIat3dE0SFgxR-11" value="layered" style="text;html=1;align=center;verticalAlign=middle;resizable=0;points=[];autosize=1;strokeColor=none;fillColor=none;fontSize=10;" parent="1" vertex="1">
          <mxGeometry x="590" y="-230" width="100" height="30" as="geometry" />
        </mxCell>
        <mxCell id="fMWMXKsyIat3dE0SFgxR-12" value="layered" style="text;html=1;align=center;verticalAlign=middle;resizable=0;points=[];autosize=1;strokeColor=none;fillColor=none;fontSize=10;" parent="1" vertex="1">
          <mxGeometry x="380" y="-190" width="100" height="30" as="geometry" />
        </mxCell>
        <mxCell id="fMWMXKsyIat3dE0SFgxR-13" value="external service" style="text;html=1;align=center;verticalAlign=middle;resizable=0;points=[];autosize=1;strokeColor=none;fillColor=none;fontSize=10;" parent="1" vertex="1">
          <mxGeometry x="355" y="-665" width="90" height="30" as="geometry" />
        </mxCell>
        <mxCell id="fMWMXKsyIat3dE0SFgxR-14" value="layered" style="text;html=1;align=center;verticalAlign=middle;resizable=0;points=[];autosize=1;strokeColor=none;fillColor=none;fontSize=10;" parent="1" vertex="1">
          <mxGeometry x="60" y="-190" width="100" height="30" as="geometry" />
        </mxCell>
        <mxCell id="fMWMXKsyIat3dE0SFgxR-15" value="RDBMS" style="shape=cylinder3;whiteSpace=wrap;html=1;boundedLbl=1;backgroundOutline=1;size=15;fontSize=10;" parent="1" vertex="1">
          <mxGeometry x="685" y="-435" width="50" height="50" as="geometry" />
        </mxCell>
        <mxCell id="fMWMXKsyIat3dE0SFgxR-16" value="RDBMS" style="shape=cylinder3;whiteSpace=wrap;html=1;boundedLbl=1;backgroundOutline=1;size=15;fontSize=10;" parent="1" vertex="1">
          <mxGeometry x="685" y="-240" width="50" height="50" as="geometry" />
        </mxCell>
        <mxCell id="fMWMXKsyIat3dE0SFgxR-17" value="RDBMS" style="shape=cylinder3;whiteSpace=wrap;html=1;boundedLbl=1;backgroundOutline=1;size=15;fontSize=10;" parent="1" vertex="1">
          <mxGeometry x="470" y="-435" width="50" height="50" as="geometry" />
        </mxCell>
        <mxCell id="fMWMXKsyIat3dE0SFgxR-19" value="RDBMS" style="shape=cylinder3;whiteSpace=wrap;html=1;boundedLbl=1;backgroundOutline=1;size=15;fontSize=10;" parent="1" vertex="1">
          <mxGeometry x="150" y="-200" width="50" height="50" as="geometry" />
        </mxCell>
        <mxCell id="fMWMXKsyIat3dE0SFgxR-20" value="RDBMS" style="shape=cylinder3;whiteSpace=wrap;html=1;boundedLbl=1;backgroundOutline=1;size=15;fontSize=10;" parent="1" vertex="1">
          <mxGeometry x="140" y="-360" width="50" height="50" as="geometry" />
        </mxCell>
        <mxCell id="fMWMXKsyIat3dE0SFgxR-21" value="&lt;font style=&quot;font-size: 8px;&quot;&gt;document store&lt;/font&gt;" style="shape=cylinder3;whiteSpace=wrap;html=1;boundedLbl=1;backgroundOutline=1;size=15;fontSize=10;" parent="1" vertex="1">
          <mxGeometry x="690" y="-645" width="50" height="50" as="geometry" />
        </mxCell>
        <mxCell id="fMWMXKsyIat3dE0SFgxR-22" value="RDBMS" style="shape=cylinder3;whiteSpace=wrap;html=1;boundedLbl=1;backgroundOutline=1;size=15;fontSize=10;" parent="1" vertex="1">
          <mxGeometry x="140" y="-515" width="50" height="50" as="geometry" />
        </mxCell>
        <mxCell id="fMWMXKsyIat3dE0SFgxR-23" value="RDBMS" style="shape=cylinder3;whiteSpace=wrap;html=1;boundedLbl=1;backgroundOutline=1;size=15;fontSize=10;" parent="1" vertex="1">
          <mxGeometry x="470" y="-200" width="50" height="50" as="geometry" />
        </mxCell>
        <mxCell id="fMWMXKsyIat3dE0SFgxR-25" value="layered" style="text;html=1;align=center;verticalAlign=middle;resizable=0;points=[];autosize=1;strokeColor=none;fillColor=none;fontSize=10;" parent="1" vertex="1">
          <mxGeometry x="50" y="-505" width="100" height="30" as="geometry" />
        </mxCell>
        <mxCell id="dS32Kvpk8FgzBGndb_1d-4" style="edgeStyle=orthogonalEdgeStyle;rounded=0;orthogonalLoop=1;jettySize=auto;html=1;exitX=1;exitY=0.5;exitDx=0;exitDy=0;dashed=1;strokeColor=#6c8ebf;strokeWidth=2;align=center;verticalAlign=middle;fontFamily=Helvetica;fontSize=11;fontColor=default;labelBackgroundColor=default;endArrow=classic;fillColor=#dae8fc;" parent="1" source="KOd4zk1bxHOUvbGizJSH-2" target="KOd4zk1bxHOUvbGizJSH-4" edge="1">
          <mxGeometry relative="1" as="geometry" />
        </mxCell>
        <mxCell id="fMWMXKsyIat3dE0SFgxR-18" value="object storage" style="shape=cylinder3;whiteSpace=wrap;html=1;boundedLbl=1;backgroundOutline=1;size=15;fontSize=8;" parent="1" vertex="1">
          <mxGeometry x="470" y="-465" width="50" height="50" as="geometry" />
        </mxCell>
        <mxCell id="pe3YYp37Rb-mgA4BbkB6-3" value="" style="rounded=1;whiteSpace=wrap;html=1;fillColor=#E6E6E6;strokeColor=#666666;fontColor=#333333;" parent="1" vertex="1">
          <mxGeometry x="880" y="-420" width="120" height="120" as="geometry" />
        </mxCell>
        <mxCell id="pe3YYp37Rb-mgA4BbkB6-4" value="Платёжный сервис" style="whiteSpace=wrap;html=1;aspect=fixed;rounded=1;strokeColor=default;align=center;verticalAlign=middle;fontFamily=Helvetica;fontSize=12;fontColor=default;fillColor=default;" parent="1" vertex="1">
          <mxGeometry x="900" y="-400" width="80" height="80" as="geometry" />
        </mxCell>
        <mxCell id="pe3YYp37Rb-mgA4BbkB6-5" value="external service" style="text;html=1;align=center;verticalAlign=middle;resizable=0;points=[];autosize=1;strokeColor=none;fillColor=none;fontSize=10;" parent="1" vertex="1">
          <mxGeometry x="895" y="-330" width="90" height="30" as="geometry" />
        </mxCell>
        <mxCell id="pe3YYp37Rb-mgA4BbkB6-6" style="edgeStyle=orthogonalEdgeStyle;rounded=0;orthogonalLoop=1;jettySize=auto;html=1;exitX=1;exitY=0.5;exitDx=0;exitDy=0;entryX=0;entryY=0.25;entryDx=0;entryDy=0;strokeColor=#6c8ebf;strokeWidth=2;align=center;verticalAlign=middle;fontFamily=Helvetica;fontSize=11;fontColor=default;labelBackgroundColor=default;endArrow=classic;fillColor=#dae8fc;" parent="1" source="KOd4zk1bxHOUvbGizJSH-4" target="pe3YYp37Rb-mgA4BbkB6-4" edge="1">
          <mxGeometry relative="1" as="geometry">
            <Array as="points">
              <mxPoint x="760" y="-455" />
              <mxPoint x="760" y="-380" />
            </Array>
          </mxGeometry>
        </mxCell>
        <mxCell id="pe3YYp37Rb-mgA4BbkB6-12" value="sync request-r&lt;span style=&quot;background-color: light-dark(#ffffff, var(--ge-dark-color, #121212)); color: light-dark(rgb(0, 0, 0), rgb(255, 255, 255));&quot;&gt;esponse&lt;/span&gt;" style="edgeLabel;html=1;align=center;verticalAlign=middle;resizable=0;points=[];" parent="pe3YYp37Rb-mgA4BbkB6-6" vertex="1" connectable="0">
          <mxGeometry x="0.5593" y="2" relative="1" as="geometry">
            <mxPoint x="-15" as="offset" />
          </mxGeometry>
        </mxCell>
        <mxCell id="pe3YYp37Rb-mgA4BbkB6-7" style="edgeStyle=orthogonalEdgeStyle;rounded=0;orthogonalLoop=1;jettySize=auto;html=1;exitX=1;exitY=0.5;exitDx=0;exitDy=0;entryX=0;entryY=0.5;entryDx=0;entryDy=0;strokeColor=#6c8ebf;strokeWidth=2;align=center;verticalAlign=middle;fontFamily=Helvetica;fontSize=11;fontColor=default;labelBackgroundColor=default;endArrow=classic;fillColor=#dae8fc;" parent="1" source="KOd4zk1bxHOUvbGizJSH-8" target="pe3YYp37Rb-mgA4BbkB6-4" edge="1">
          <mxGeometry relative="1" as="geometry">
            <Array as="points">
              <mxPoint x="760" y="-260" />
              <mxPoint x="760" y="-360" />
            </Array>
          </mxGeometry>
        </mxCell>
        <mxCell id="pe3YYp37Rb-mgA4BbkB6-13" value="sync request-response" style="edgeLabel;html=1;align=center;verticalAlign=middle;resizable=0;points=[];" parent="pe3YYp37Rb-mgA4BbkB6-7" vertex="1" connectable="0">
          <mxGeometry x="0.55" y="-1" relative="1" as="geometry">
            <mxPoint x="-8" y="-2" as="offset" />
          </mxGeometry>
        </mxCell>
      </root>
    </mxGraphModel>
  </diagram>
</mxfile>
